<svg xmlns="http://www.w3.org/2000/svg" viewBox="0 0 128 128" role="img" aria-labelledby="title desc">
  <title id="title">Lynx Media Group link logo</title>
  <desc id="desc">A stylized lynx head with link-shaped curves in a purple mark.</desc>
  <defs>
    <linearGradient id="lynxPurple" x1="12" y1="12" x2="116" y2="116" gradientUnits="userSpaceOnUse">
      <stop stop-color="#d946ef"/>
      <stop offset="0.52" stop-color="#8b5cf6"/>
      <stop offset="1" stop-color="#4f46e5"/>
    </linearGradient>
    <linearGradient id="lynxEye" x1="38" y1="59" x2="90" y2="77" gradientUnits="userSpaceOnUse">
      <stop stop-color="#f5f3ff"/>
      <stop offset="1" stop-color="#c4b5fd"/>
    </linearGradient>
  </defs>
  <rect width="128" height="128" rx="28" fill="#09090f"/>
  <path d="M30 45 21 18l27 13c5-2 10-3 16-3s11 1 16 3l27-13-9 27c8 10 12 22 12 35 0 13-5 24-14 32-8 8-19 12-32 12s-24-4-32-12c-9-8-14-19-14-32 0-13 4-25 12-35Z" fill="url(#lynxPurple)"/>
  <path d="M42 54c7-6 14-9 22-9s15 3 22 9c7 7 10 15 10 25 0 9-3 16-9 22-6 5-14 8-23 8s-17-3-23-8c-6-6-9-13-9-22 0-10 3-18 10-25Z" fill="#11111b" opacity=".9"/>
  <path d="M39 72c8-9 17-13 25-13s17 4 25 13c-4 6-9 10-14 13l-11-9-11 9c-5-3-10-7-14-13Z" fill="url(#lynxEye)"/>
  <path d="M47 71c5-3 10-4 15-4m19 4c-5-3-10-4-15-4" fill="none" stroke="#09090f" stroke-width="5" stroke-linecap="round"/>
  <path d="M55 88h18l-9 9-9-9Z" fill="#09090f"/>
  <path d="M34 98c-8 0-14-6-14-14s6-14 14-14h14m46 0h4c8 0 14 6 14 14s-6 14-14 14H80" fill="none" stroke="#c4b5fd" stroke-width="8" stroke-linecap="round"/>
  <path d="M48 84h32" fill="none" stroke="#f5f3ff" stroke-width="8" stroke-linecap="round"/>
</svg>
